<?xml version="1.0" encoding="utf-8"?>
<!-- Generator: Adobe Illustrator 16.0.0, SVG Export Plug-In . SVG Version: 6.00 Build 0)  -->
<!DOCTYPE svg PUBLIC "-//W3C//DTD SVG 1.1//EN" "http://www.w3.org/Graphics/SVG/1.1/DTD/svg11.dtd">
<svg version="1.1" id="Capa_1" xmlns="http://www.w3.org/2000/svg" xmlns:xlink="http://www.w3.org/1999/xlink" x="0px" y="0px"
	 width="1200px" height="1200px" viewBox="0 0 1200 1200" enable-background="new 0 0 1200 1200" xml:space="preserve">
<g>
	<path d="M1046.829,153.176c-137.564-137.564-361.391-137.564-498.955,0c-137.561,137.56-137.561,361.386,0,498.946
		c137.564,137.564,361.391,137.564,498.955,0C1184.39,514.562,1184.39,290.735,1046.829,153.176z M1009.564,614.861
		c-117.014,117.017-307.416,117.014-424.43,0c-117.013-117.014-117.013-307.412,0-424.426c117.018-117.017,307.416-117.013,424.43,0
		C1126.578,307.449,1126.578,497.848,1009.564,614.861z"/>
	<path d="M683.611,516.385c-69.6-69.596-101.108-162.802-94.72-253.842c-65.652,97.623-55.4,231.475,30.847,317.719
		c86.244,86.247,220.096,96.499,317.719,30.847C846.417,617.496,753.212,585.984,683.611,516.385z"/>
	<path d="M491.886,651.715L52.875,1055.107c-20.349,18.684,73.331,112.359,92.019,92.018l403.389-439.018
		C555.097,700.679,499.314,644.896,491.886,651.715z"/>
</g>
</svg>
